<?xml version="1.0" encoding="utf-8"?>
<!-- Generator: Adobe Illustrator 22.1.0, SVG Export Plug-In . SVG Version: 6.00 Build 0)  -->
<svg version="1.1" id="Capa_1" xmlns="http://www.w3.org/2000/svg" xmlns:xlink="http://www.w3.org/1999/xlink" x="0px" y="0px"
	 viewBox="0 0 841.9 595.3" style="enable-background:new 0 0 841.9 595.3;" xml:space="preserve">
<style type="text/css">
	.st0{fill:#FFDC64;}
	.st1{fill:#FFC850;}
	.st2{fill:#FFF082;}
</style>
<g>
	<path class="st0" d="M421.5,55.5c-188.3,0-341,152.7-341,341v78.7h682v-78.7C762.5,208.2,609.8,55.5,421.5,55.5z"/>
	<path class="st1" d="M775.6,475.2H264.1c-7.2,0-13.1-5.9-13.1-13.1v-65.6c0-62.1,11.6-120.4,31.7-170.5c3.1-7.6,14.3-6.3,15.7,1.8
		L326,387.9c2.2,12.6,13.1,21.8,25.9,21.8h139.4c12.8,0,23.7-9.2,25.9-21.8l51.6-299c-44.5-21.3-94.4-33.3-147.1-33.3
		c-50.2,0-97.9,11-140.8,30.5l0,0c-0.3,0.1-6.3,3.1-6.3,3.1C159.8,144,80.5,260.9,80.5,396.5v78.7H67.4c-7.2,0-13.1,5.9-13.1,13.1
		V505c0,5.7,3.5,10.7,8.9,12.5C157,548.2,283,567,421.5,567s264.5-18.8,358.3-49.5c5.4-1.8,8.9-6.8,8.9-12.5v-16.7
		C788.7,481.1,782.9,475.2,775.6,475.2z"/>
	<path class="st2" d="M448.6,409.7h-54.2c-14.1,0-25.7-11.2-26.2-25.3l-11.3-328c-0.5-14.8,11.4-27.1,26.2-27.1H460
		c14.8,0,26.7,12.3,26.2,27.1l-11.3,327.9C474.4,398.4,462.8,409.7,448.6,409.7z"/>
	<g>
		<path class="st0" d="M779.8,492.4C686,514.3,560,527.7,421.5,527.7S157,514.3,63.2,492.4c-4.3-1-7.3-3.5-8.4-6.6
			c-0.2,0.9-0.5,1.6-0.5,2.6v16.7c0,5.7,3.5,10.7,8.9,12.5C157,548.2,283,567,421.5,567s264.5-18.8,358.3-49.5
			c5.4-1.8,8.9-6.8,8.9-12.5v-16.7c0-0.9-0.3-1.7-0.5-2.6C787.1,488.8,784.1,491.3,779.8,492.4z"/>
		<path class="st0" d="M403.3,384.3l-8-327.9c-0.4-14.8,8.1-27.1,18.6-27.1h-30.8c-14.8,0-26.7,12.3-26.2,27.1l11.3,327.9
			c0.5,14.1,12.1,25.3,26.2,25.3h27.5C411.9,409.7,403.7,398.4,403.3,384.3z"/>
	</g>
	<path d="M775.6,462.9h-0.8v-66.4c0-165.7-115.8-309.3-276.6-344.9c-0.9-8.6-4.5-16.5-10.6-22.8c-7.3-7.6-17.2-11.8-27.7-11.8H383
		c-10.5,0-20.4,4.2-27.7,11.8c-6.1,6.3-9.8,14.3-10.6,22.8C184,87.2,68.2,230.8,68.2,396.5v66.4h-0.8c-14,0-25.4,11.4-25.4,25.4V505
		c0,11.1,7,20.8,17.4,24.2c98.8,32.3,227.4,50.1,362.1,50.1s263.4-17.8,362.1-50.1C794,525.8,801,516.1,801,505v-16.7
		C801,474.3,789.6,462.9,775.6,462.9z M373,45.8c2.6-2.7,6.2-4.3,10-4.3h76.9c3.8,0,7.4,1.5,10,4.3c2.6,2.7,4,6.4,3.9,10.2
		l-11.3,327.9c-0.3,7.5-6.4,13.5-13.9,13.5h-54.2c-7.5,0-13.7-5.9-13.9-13.5L369.1,56C369,52.2,370.4,48.6,373,45.8z M776.4,505.1
		c0,0.3-0.1,0.7-0.5,0.8c-96.4,31.5-222.3,48.9-354.5,48.9s-258-17.4-354.4-48.9c-0.3-0.1-0.5-0.5-0.5-0.8v-16.7
		c0-0.5,0.4-0.8,0.8-0.8h472.2c6.8,0,12.3-5.5,12.3-12.3s-5.5-12.3-12.3-12.3H92.8v-66.4c0-123.6,69.2-233.9,173.7-289.9l26.7,186.8
		c0.9,6.1,6.1,10.6,12.2,10.6c0.6,0,1.2,0,1.8-0.1c6.7-1,11.4-7.2,10.4-13.9L289.7,95.3c17.7-7.8,36.3-14,55.5-18.6l10.6,308
		c0.7,20.9,17.6,37.2,38.5,37.2h54.2c20.9,0,37.8-16.3,38.5-37.2l10.6-308c19.3,4.6,37.8,10.8,55.5,18.6l-27.8,194.6
		c-1,6.7,3.7,13,10.4,13.9c0.6,0.1,1.2,0.1,1.8,0.1c6,0,11.3-4.4,12.2-10.6l26.7-186.8C681,162.6,750.2,273,750.2,396.5v66.4h-79.5
		c-6.8,0-12.3,5.5-12.3,12.3s5.5,12.3,12.3,12.3h104.9c0.5,0,0.8,0.4,0.8,0.8V505.1L776.4,505.1z"/>
	<path d="M618.2,462.9H592c-6.8,0-12.3,5.5-12.3,12.3s5.5,12.3,12.3,12.3h26.2c6.8,0,12.3-5.5,12.3-12.3S625,462.9,618.2,462.9z"/>
	<path d="M325,342.3c-1-6.7-7.2-11.4-13.9-10.4c-6.7,1-11.4,7.2-10.4,13.9l3.7,26.2c0.9,6.1,6.1,10.6,12.2,10.6c0.6,0,1.2,0,1.8-0.1
		c6.7-1,11.4-7.2,10.4-13.9L325,342.3z"/>
	<path d="M531.9,331.9c-6.7-1-13,3.7-13.9,10.4l-3.7,26.2c-1,6.7,3.7,13,10.4,13.9c0.6,0.1,1.2,0.1,1.8,0.1c6,0,11.3-4.4,12.2-10.6
		l3.7-26.2C543.3,339.1,538.6,332.9,531.9,331.9z"/>
</g>
</svg>
